<svg width="1600" height="900" viewBox="0 0 1600 900" fill="none" xmlns="http://www.w3.org/2000/svg">
  <defs>
    <linearGradient id="bg4" x1="100" y1="100" x2="1450" y2="820" gradientUnits="userSpaceOnUse">
      <stop stop-color="#7C3AED"/>
      <stop offset="0.55" stop-color="#6366F1"/>
      <stop offset="1" stop-color="#0EA5E9"/>
    </linearGradient>
  </defs>
  <rect x="40" y="40" width="1520" height="820" rx="42" fill="url(#bg4)"/>
  <rect x="400" y="150" width="800" height="610" rx="34" fill="white" fill-opacity="0.2" stroke="#C4B5FD"/>
  <text x="490" y="245" fill="white" font-size="48" font-family="Inter, Arial" font-weight="700">Add a trigger</text>
  <text x="490" y="290" fill="#E9D5FF" font-size="22" font-family="Inter, Arial">Select a trigger that activates an action</text>
  <rect x="490" y="330" width="620" height="46" rx="12" fill="white" fill-opacity="0.25"/>
  <text x="520" y="360" fill="#E2E8F0" font-size="20" font-family="Inter, Arial">Search triggers...</text>
  <g>
    <rect x="490" y="430" width="280" height="70" rx="16" fill="white"/>
    <rect x="800" y="430" width="310" height="70" rx="16" fill="white"/>
    <rect x="490" y="520" width="280" height="70" rx="16" fill="white"/>
    <rect x="800" y="520" width="310" height="70" rx="16" fill="white"/>
    <rect x="490" y="610" width="280" height="70" rx="16" fill="white"/>
    <rect x="800" y="610" width="310" height="70" rx="16" fill="white"/>
  </g>
  <g fill="#334155" font-size="24" font-family="Inter, Arial" font-weight="600">
    <text x="530" y="474">Calendly</text>
    <text x="840" y="474">TopEdge</text>
    <text x="530" y="564">Shopify</text>
    <text x="840" y="564">Schedule</text>
    <text x="530" y="654">HubSpot</text>
    <text x="840" y="654">Webhook</text>
  </g>
</svg>
